# This file uses meters as units for non-parametric coordinates.

mtllib Canopy 1.mtl
g default
v -391.600037 443.196014 -406.803986
v 391.600006 443.196014 -406.803986
v 391.600006 443.196014 -393.196014
v -391.600006 443.196014 -393.196014
v -391.600037 456.803986 -393.196014
v 391.600006 456.803986 -393.196014
v 391.600006 456.803986 -406.803986
v -391.600006 456.803986 -406.803986
v 393.196014 443.196014 -391.600006
v 406.803986 443.196014 -391.599945
v 406.803986 443.196014 391.599976
v 393.196014 443.196014 391.599976
v 406.803986 456.803986 -391.600006
v 393.196014 456.803986 -391.599945
v 393.196014 456.803986 391.599976
v 406.803986 456.803986 391.599976
v 391.600006 443.196014 393.196045
v 391.600037 443.196014 406.803955
v -391.600037 443.196014 406.803955
v -391.600037 443.196014 393.196045
v 391.600037 456.803986 406.803955
v 391.600037 456.803986 393.196045
v -391.600037 456.803986 393.196045
v -391.600037 456.803986 406.803955
v -393.195984 443.196014 391.599976
v -406.804016 443.196014 391.600037
v -406.804016 443.196014 -391.600037
v -393.195984 443.196014 -391.600037
v -406.804016 456.803986 391.600037
v -393.195984 456.803986 391.600037
v -393.195984 456.803986 -391.600037
v -406.804016 456.803986 -391.600037
v -408.399963 -0.053833 -408.399963
v -408.399963 -0.053833 -391.600037
v -408.399963 460.053833 -391.600037
v -408.399963 460.053833 -408.399963
v -391.600037 -0.053833 -391.600037
v -391.600037 -0.053833 -408.399963
v -391.600037 460.053833 -408.399963
v -391.600037 460.053833 -391.600037
v -408.399963 -0.053833 408.400024
v -391.600037 -0.053833 408.400024
v -391.600037 460.053833 408.400024
v -408.399963 460.053833 408.400024
v -391.600037 460.053833 391.599976
v -408.399963 460.053833 391.599976
v -391.600037 -0.053833 391.599976
v -408.399963 -0.053833 391.599976
v 391.600006 -0.053833 408.400024
v 408.399994 -0.053833 408.400024
v 408.399994 460.053833 408.400024
v 391.600006 460.053833 408.400024
v 408.399994 460.053833 391.599976
v 391.600006 460.053833 391.599976
v 408.399994 -0.053833 391.599976
v 391.600006 -0.053833 391.599976
v 391.600006 -0.053833 -391.600006
v 408.399994 -0.053833 -391.600006
v 408.399994 460.053833 -391.600006
v 391.600006 460.053833 -391.600006
v 408.399994 460.053833 -408.399994
v 391.600006 460.053833 -408.399994
v 408.399994 -0.053833 -408.399994
v 391.600006 -0.053833 -408.399994
v -403.000092 370.000000 -400.000000
v -403.000092 450.000000 -400.000000
v 403.000092 370.000000 -400.000000
v 403.000092 450.000000 -400.000000
v 400.000000 370.000000 -403.000092
v 400.000000 450.000000 -403.000092
v 400.000000 370.000000 403.000092
v 400.000000 450.000000 403.000092
v -405.000031 460.000000 405.000031
v 0.000000 460.000000 405.000031
v 405.000031 460.000000 405.000031
v -405.000031 460.000000 0.000000
v 0.000000 790.000122 0.000000
v 405.000031 460.000000 0.000000
v -405.000031 460.000000 -405.000031
v 0.000000 460.000000 -405.000031
v 405.000031 460.000000 -405.000031
v -390.000000 370.000000 403.000092
v -390.000000 450.000000 403.000092
v -390.000000 370.000000 -403.000092
v -390.000000 450.000000 -403.000092
v 403.000092 370.000000 400.000000
v 403.000092 450.000000 400.000000
v -403.000092 370.000000 400.000000
v -403.000092 450.000000 400.000000
vt 0.985571 0.664508
vt 0.985571 0.569905
vt 1.082809 0.569905
vt 1.082809 0.664508
vt 0.884784 0.970644
vt 0.884784 0.876041
vt 0.982021 0.876041
vt 0.982021 0.970644
vt 0.884784 0.870446
vt 0.884784 0.775842
vt 0.982021 0.775842
vt 0.982021 0.870446
vt 0.884784 0.770247
vt 0.884784 0.675643
vt 0.982021 0.675643
vt 0.982021 0.770247
vt 0.884823 0.569572
vt 0.982397 0.569572
vt 0.982397 0.664504
vt 0.884823 0.664504
vt 0.884683 0.875709
vt 0.982258 0.875709
vt 0.982258 0.970640
vt 0.884683 0.970640
vt 0.884683 0.775678
vt 0.982258 0.775678
vt 0.982258 0.870609
vt 0.884683 0.870610
vt 0.884683 0.675647
vt 0.982258 0.675647
vt 0.982258 0.770579
vt 0.884683 0.770579
vt 0.885973 0.569276
vt 0.983848 0.569276
vt 0.983848 0.664500
vt 0.885973 0.664500
vt 0.884685 0.875413
vt 0.982559 0.875413
vt 0.982559 0.970636
vt 0.884685 0.970636
vt 0.884685 0.775532
vt 0.982559 0.775532
vt 0.982559 0.870755
vt 0.884685 0.870755
vt 0.884685 0.675652
vt 0.982559 0.675652
vt 0.982559 0.770875
vt 0.884685 0.770875
vt 0.983981 0.664510
vt 0.886838 0.664509
vt 0.886838 0.569997
vt 0.983981 0.569997
vt 0.981828 0.970646
vt 0.884685 0.970646
vt 0.884685 0.876133
vt 0.981828 0.876133
vt 0.981828 0.870678
vt 0.884685 0.870678
vt 0.884685 0.776166
vt 0.981829 0.776166
vt 0.981828 0.770711
vt 0.884685 0.770711
vt 0.884685 0.676199
vt 0.981829 0.676199
vt 0.886428 0.567694
vt 0.984559 0.567694
vt 0.984559 0.665825
vt 0.886428 0.665825
vt 0.884686 0.873830
vt 0.982817 0.873830
vt 0.982817 0.971961
vt 0.884686 0.971961
vt 0.973495 0.971268
vt 0.973495 0.968366
vt 0.894008 0.968366
vt 0.894008 0.971268
vt 0.984559 0.566321
vt 0.886428 0.566321
vt 0.886428 0.468189
vt 0.984559 0.468189
vt 0.982817 0.872209
vt 0.884686 0.872209
vt 0.884686 0.774078
vt 0.982817 0.774078
vt 0.886428 0.368438
vt 0.984559 0.368438
vt 0.984559 0.466569
vt 0.886428 0.466569
vt 0.884686 0.674326
vt 0.982817 0.674326
vt 0.982817 0.772458
vt 0.884686 0.772458
vt 0.894008 0.771764
vt 0.973494 0.771765
vt 0.973495 0.768862
vt 0.894008 0.768862
vt 0.884685 0.674326
vt 0.982219 0.674326
vt 0.982219 0.771860
vt 0.884685 0.771860
vt 0.886676 0.368210
vt 0.984209 0.368210
vt 0.984209 0.465744
vt 0.886676 0.465744
vt 0.982219 0.871910
vt 0.884685 0.871910
vt 0.884685 0.774377
vt 0.982219 0.774377
vt 0.893951 0.868337
vt 0.893951 0.871222
vt 0.972953 0.871222
vt 0.972953 0.868337
vt 0.984209 0.565795
vt 0.886676 0.565795
vt 0.886676 0.468261
vt 0.984209 0.468261
vt 0.884685 0.874428
vt 0.982219 0.874428
vt 0.982219 0.971961
vt 0.884685 0.971961
vt 0.972953 0.971272
vt 0.972953 0.968388
vt 0.893951 0.968388
vt 0.893951 0.971272
vt 0.886676 0.568292
vt 0.984209 0.568292
vt 0.984209 0.665825
vt 0.886676 0.665825
vt 0.884418 0.674326
vt 0.984318 0.674326
vt 0.984318 0.774226
vt 0.884418 0.774226
vt 0.616863 0.369208
vt 0.716763 0.369208
vt 0.716763 0.469108
vt 0.616863 0.469108
vt 0.984318 0.873094
vt 0.884418 0.873094
vt 0.884418 0.773194
vt 0.984318 0.773194
vt 0.974827 0.872388
vt 0.974827 0.869433
vt 0.893909 0.869433
vt 0.893909 0.872388
vt 0.716763 0.567976
vt 0.616863 0.567976
vt 0.616863 0.468076
vt 0.716763 0.468076
vt 0.884418 0.872061
vt 0.984318 0.872061
vt 0.984318 0.971961
vt 0.884418 0.971961
vt 0.616863 0.565925
vt 0.716763 0.565925
vt 0.716763 0.665825
vt 0.616863 0.665825
vt 0.626353 0.662165
vt 0.626353 0.665119
vt 0.707272 0.665119
vt 0.707272 0.662165
vt 0.884685 0.674452
vt 0.982453 0.674452
vt 0.982453 0.772220
vt 0.884685 0.772220
vt 0.893973 0.768638
vt 0.893973 0.771529
vt 0.973165 0.771529
vt 0.973165 0.768638
vt 0.886509 0.368190
vt 0.984277 0.368190
vt 0.984277 0.465958
vt 0.886509 0.465958
vt 0.982453 0.872091
vt 0.884685 0.872091
vt 0.884685 0.774323
vt 0.982453 0.774323
vt 0.984277 0.565829
vt 0.886509 0.565829
vt 0.886509 0.468061
vt 0.984277 0.468061
vt 0.884685 0.874193
vt 0.982453 0.874193
vt 0.982453 0.971961
vt 0.884685 0.971961
vt 0.886509 0.568057
vt 0.984277 0.568057
vt 0.984277 0.665825
vt 0.886509 0.665825
vt 0.974989 0.665135
vt 0.974989 0.662243
vt 0.895797 0.662243
vt 0.895797 0.665135
vt 0.014981 0.013790
vt 0.014981 0.110071
vt 0.985019 0.013790
vt 0.985019 0.110071
vt 0.985019 0.013790
vt 0.985019 0.110071
vt 0.014981 0.013790
vt 0.014981 0.110071
vt 0.040195 0.417105
vt 0.309277 0.417105
vt 0.309277 0.686187
vt 0.578359 0.417105
vt 0.578359 0.686187
vt 0.040195 0.955269
vt 0.309277 0.955269
vt 0.578359 0.955269
vt 0.040195 0.686187
vt 0.014981 0.013790
vt 0.014981 0.110071
vt 0.985019 0.013790
vt 0.985019 0.110071
vt 0.985019 0.013790
vt 0.985019 0.110071
vt 0.014981 0.013790
vt 0.014981 0.110071
vn 0.000000 -1.000000 -0.000003
vn 0.000000 -1.000000 -0.000000
vn 0.000000 -1.000000 -0.000003
vn 0.000000 -1.000000 0.000000
vn 0.000000 1.000000 -0.000003
vn 0.000000 1.000000 -0.000000
vn 0.000000 1.000000 -0.000003
vn 0.000000 1.000000 0.000000
vn 0.000000 0.000000 -1.000000
vn 0.000000 0.000000 -1.000000
vn 0.000000 0.000000 -1.000000
vn 0.000000 0.000000 -1.000000
vn 0.000000 0.000000 1.000000
vn 0.000000 0.000000 1.000000
vn 0.000000 0.000000 1.000000
vn 0.000000 0.000000 1.000000
vn 0.000000 -1.000000 0.000000
vn 0.000000 -1.000000 0.000000
vn 0.000000 -1.000000 0.000000
vn 0.000000 -1.000000 0.000000
vn 0.000000 1.000000 0.000000
vn 0.000000 1.000000 0.000000
vn 0.000000 1.000000 0.000000
vn 0.000000 1.000000 0.000000
vn -1.000000 0.000006 0.000000
vn -1.000000 0.000006 0.000000
vn -1.000000 0.000000 0.000000
vn -1.000000 0.000000 0.000000
vn 1.000000 0.000006 0.000000
vn 1.000000 0.000006 0.000000
vn 1.000000 0.000000 0.000000
vn 1.000000 0.000000 0.000000
vn 0.000000 -1.000000 0.000000
vn 0.000000 -1.000000 0.000000
vn 0.000000 -1.000000 0.000000
vn 0.000000 -1.000000 0.000000
vn 0.000000 1.000000 0.000000
vn 0.000000 1.000000 0.000000
vn 0.000000 1.000000 0.000000
vn 0.000000 1.000000 0.000000
vn 0.000000 0.000000 -1.000000
vn 0.000000 0.000000 -1.000000
vn 0.000000 0.000000 -1.000000
vn 0.000000 0.000000 -1.000000
vn 0.000000 0.000000 1.000000
vn 0.000000 0.000000 1.000000
vn 0.000000 0.000000 1.000000
vn 0.000000 0.000000 1.000000
vn 0.000000 -1.000000 0.000000
vn 0.000000 -1.000000 0.000000
vn 0.000000 -1.000000 0.000000
vn 0.000000 -1.000000 0.000000
vn 0.000000 1.000000 0.000000
vn 0.000000 1.000000 0.000000
vn 0.000000 1.000000 0.000000
vn 0.000000 1.000000 0.000000
vn -1.000000 0.000000 0.000000
vn -1.000000 0.000000 0.000000
vn -1.000000 0.000000 0.000000
vn -1.000000 0.000000 0.000000
vn 1.000000 0.000000 0.000000
vn 1.000000 0.000000 0.000000
vn 1.000000 0.000000 0.000000
vn 1.000000 0.000000 0.000000
vn -1.000000 0.000000 0.000000
vn -1.000000 0.000000 0.000000
vn -1.000000 0.000000 0.000000
vn -1.000000 0.000000 0.000000
vn 1.000000 0.000000 0.000000
vn 1.000000 -0.000000 -0.000000
vn 1.000000 0.000002 0.000002
vn 1.000000 -0.000000 0.000002
vn 1.000000 -0.000000 -0.000002
vn 1.000000 -0.000002 -0.000001
vn 1.000000 -0.000001 -0.000008
vn 1.000000 0.000013 -0.000000
vn 0.000000 -1.000000 0.000000
vn 0.000000 -1.000000 0.000000
vn 0.000000 -1.000000 0.000000
vn 0.000000 -1.000000 0.000000
vn 0.000000 0.000000 -1.000000
vn 0.000000 0.000000 -1.000000
vn 0.000000 0.000000 -1.000000
vn 0.000000 0.000000 -1.000000
vn 0.000000 1.000000 0.000000
vn 0.000000 1.000000 0.000000
vn 0.000000 1.000000 0.000000
vn 0.000000 1.000000 0.000000
vn 0.000000 0.000000 1.000000
vn 0.000000 0.000000 1.000000
vn 0.000000 0.000000 1.000000
vn 0.000000 0.000000 1.000000
vn 0.000000 0.000000 1.000000
vn 0.000000 0.000000 1.000000
vn 0.000000 0.000000 1.000000
vn 0.000000 0.000000 1.000000
vn 0.000000 0.000000 1.000000
vn 0.000000 0.000000 1.000000
vn 0.000000 0.000000 1.000000
vn 0.000000 0.000000 1.000000
vn 0.000000 1.000000 0.000000
vn 0.000000 1.000000 0.000000
vn 0.000000 1.000000 0.000000
vn 0.000000 1.000000 0.000000
vn 0.000036 -0.000003 -1.000000
vn 0.000040 -0.000001 -1.000000
vn -0.000000 0.000000 -1.000000
vn -0.000015 0.000000 -1.000000
vn -0.000036 -0.000002 -1.000000
vn -0.000040 -0.000001 -1.000000
vn -0.000000 0.000000 -1.000000
vn 0.000011 0.000000 -1.000000
vn 0.000000 -1.000000 0.000000
vn 0.000000 -1.000000 0.000000
vn 0.000000 -1.000000 0.000000
vn 0.000000 -1.000000 0.000000
vn 1.000000 0.000000 0.000000
vn 1.000000 -0.000000 0.000000
vn 1.000000 0.000000 0.000000
vn 1.000000 -0.000000 0.000000
vn 1.000000 0.000000 0.000000
vn 1.000000 0.000003 0.000000
vn 1.000000 0.000004 0.000000
vn 1.000000 0.000000 0.000000
vn -1.000000 0.000000 0.000000
vn -1.000000 0.000000 0.000000
vn -1.000000 0.000000 0.000000
vn -1.000000 0.000000 0.000000
vn 0.000000 0.000000 1.000000
vn 0.000000 0.000000 1.000000
vn 0.000000 0.000000 1.000000
vn 0.000000 0.000000 1.000000
vn 0.000000 1.000000 0.000000
vn 0.000000 1.000000 0.000000
vn 0.000000 1.000000 0.000000
vn 0.000000 1.000000 0.000000
vn 0.000000 0.000000 -1.000000
vn -0.000000 0.000000 -1.000000
vn -0.000000 0.000000 -1.000000
vn -0.000010 0.000000 -1.000000
vn 0.000001 0.000000 -1.000000
vn 0.000001 0.000000 -1.000000
vn 0.000000 0.000000 -1.000000
vn 0.000006 0.000000 -1.000000
vn 0.000000 -1.000000 0.000000
vn 0.000000 -1.000000 0.000000
vn 0.000000 -1.000000 0.000000
vn 0.000000 -1.000000 0.000000
vn 1.000000 0.000000 0.000000
vn 1.000000 0.000000 0.000000
vn 1.000000 0.000000 0.000000
vn 1.000000 0.000000 0.000000
vn -1.000000 0.000000 0.000000
vn -1.000000 0.000000 0.000000
vn -1.000000 -0.000000 0.000001
vn -1.000000 0.000000 0.000002
vn -1.000000 0.000000 -0.000002
vn -1.000000 -0.000005 -0.000011
vn -1.000000 -0.000007 -0.000007
vn -1.000000 0.000002 0.000009
vn 0.000000 0.000000 1.000000
vn -0.000000 -0.000000 1.000000
vn -0.000003 0.000002 1.000000
vn -0.000010 -0.000000 1.000000
vn 0.000012 -0.000000 1.000000
vn 0.000043 0.000000 1.000000
vn 0.000000 0.000003 1.000000
vn -0.000014 0.000011 1.000000
vn 0.000000 1.000000 0.000000
vn 0.000000 1.000000 0.000000
vn 0.000000 1.000000 0.000000
vn 0.000000 1.000000 0.000000
vn 0.000000 0.000000 -1.000000
vn 0.000000 0.000000 -1.000000
vn 0.000000 0.000000 -1.000000
vn 0.000000 0.000000 -1.000000
vn 0.000000 -1.000000 0.000000
vn 0.000000 -1.000000 0.000000
vn 0.000000 -1.000000 0.000000
vn 0.000000 -1.000000 0.000000
vn 1.000000 0.000000 0.000000
vn 1.000000 0.000000 0.000000
vn 1.000000 0.000000 0.000000
vn 1.000000 0.000000 0.000000
vn -1.000000 0.000000 0.000000
vn -1.000000 0.000000 0.000000
vn -1.000000 -0.000002 0.000000
vn -1.000000 0.000000 0.000000
vn -1.000000 0.000000 0.000000
vn -1.000000 0.000003 0.000000
vn -1.000000 0.000003 0.000000
vn -1.000000 -0.000013 0.000000
vn 0.000000 0.000000 -1.000000
vn 0.000000 0.000000 -1.000000
vn 0.000000 0.000000 -1.000000
vn 0.000000 0.000000 -1.000000
vn 1.000000 0.000000 0.000000
vn 1.000000 0.000000 0.000000
vn 1.000000 0.000000 0.000000
vn 1.000000 0.000000 0.000000
vn -0.353007 0.866471 0.353007
vn 0.000000 0.775235 0.631673
vn 0.000000 1.000000 0.000000
vn 0.353007 0.866471 0.353007
vn 0.631673 0.775235 0.000000
vn -0.353007 0.866471 -0.353007
vn 0.000000 0.775235 -0.631673
vn 0.353007 0.866471 -0.353007
vn -0.631673 0.775235 0.000000
vn -1.000000 0.000000 0.000000
vn -1.000000 0.000000 0.000000
vn -1.000000 0.000000 0.000000
vn -1.000000 0.000000 0.000000
vn 0.000000 0.000000 1.000000
vn 0.000000 0.000000 1.000000
vn 0.000000 0.000000 1.000000
vn 0.000000 0.000000 1.000000
s 1
g Canopy_1
usemtl lambert3SG
f 1/1/1 2/2/2 4/4/3
f 4/4/3 2/2/2 3/3/4
s 2
f 5/5/5 6/6/6 8/8/7
f 8/8/7 6/6/6 7/7/8
s 3
f 8/9/9 7/10/10 1/12/11
f 1/12/11 7/10/10 2/11/12
s 4
f 4/13/13 3/14/14 5/16/15
f 5/16/15 3/14/14 6/15/16
s 5
f 9/17/17 10/18/18 12/20/19
f 12/20/19 10/18/18 11/19/20
s 6
f 13/21/21 14/22/22 16/24/23
f 16/24/23 14/22/22 15/23/24
s 7
f 14/25/25 9/26/26 15/28/27
f 15/28/27 9/26/26 12/27/28
s 8
f 10/29/29 13/30/30 11/32/31
f 11/32/31 13/30/30 16/31/32
s 9
f 17/33/33 18/34/34 20/36/35
f 20/36/35 18/34/34 19/35/36
s 10
f 21/37/37 22/38/38 24/40/39
f 24/40/39 22/38/38 23/39/40
s 11
f 22/41/41 17/42/42 23/44/43
f 23/44/43 17/42/42 20/43/44
s 12
f 18/45/45 21/46/46 19/48/47
f 19/48/47 21/46/46 24/47/48
s 13
f 25/49/49 26/50/50 28/52/51
f 28/52/51 26/50/50 27/51/52
s 14
f 29/53/53 30/54/54 32/56/55
f 32/56/55 30/54/54 31/55/56
s 15
f 26/57/57 29/58/58 27/60/59
f 27/60/59 29/58/58 32/59/60
s 16
f 30/61/61 25/62/62 31/64/63
f 31/64/63 25/62/62 28/63/64
s 17
f 33/65/65 34/66/66 36/68/67
f 36/68/67 34/66/66 35/67/68
s 18
f 37/69/69 38/70/70 40/72/71
f 40/72/71 38/70/70 4/75/72
f 4/75/72 38/70/70 1/74/73
f 38/70/70 39/71/74 1/74/73
f 1/74/73 39/71/74 8/73/75
f 39/71/74 40/72/71 8/73/75
f 8/73/75 40/72/71 5/76/76
f 40/72/71 4/75/72 5/76/76
s 19
f 33/77/77 38/78/78 34/80/79
f 34/80/79 38/78/78 37/79/80
s 20
f 36/81/81 39/82/82 33/84/83
f 33/84/83 39/82/82 38/83/84
s 21
f 35/85/85 40/86/86 36/88/87
f 36/88/87 40/86/86 39/87/88
s 22
f 34/89/89 37/90/90 35/92/91
f 35/92/91 32/93/92 40/91/93
f 32/93/92 31/94/94 40/91/93
f 40/91/93 31/94/94 37/90/90
f 31/94/94 28/95/95 37/90/90
f 28/95/95 27/96/96 37/90/90
f 37/90/90 27/96/96 35/92/91
f 27/96/96 32/93/92 35/92/91
s 24
f 41/97/97 42/98/98 44/100/99
f 44/100/99 42/98/98 43/99/100
s 25
f 44/101/101 43/102/102 46/104/103
f 46/104/103 43/102/102 45/103/104
s 26
f 46/105/105 29/111/106 48/108/107
f 29/111/106 26/112/108 48/108/107
f 46/105/105 45/106/109 29/111/106
f 29/111/106 45/106/109 30/110/110
f 45/106/109 47/107/111 30/110/110
f 30/110/110 47/107/111 25/109/112
f 47/107/111 48/108/107 25/109/112
f 26/112/108 25/109/112 48/108/107
s 27
f 48/113/113 47/114/114 41/116/115
f 41/116/115 47/114/114 42/115/116
s 28
f 42/117/117 47/118/118 43/120/119
f 43/120/119 47/118/118 19/123/120
f 19/123/120 47/118/118 20/122/121
f 47/118/118 45/119/122 20/122/121
f 20/122/121 45/119/122 23/121/123
f 45/119/122 43/120/119 23/121/123
f 23/121/123 43/120/119 24/124/124
f 43/120/119 19/123/120 24/124/124
s 29
f 48/125/125 41/126/126 46/128/127
f 46/128/127 41/126/126 44/127/128
s 30
f 49/129/129 50/130/130 52/132/131
f 52/132/131 50/130/130 51/131/132
s 31
f 52/133/133 51/134/134 54/136/135
f 54/136/135 51/134/134 53/135/136
s 32
f 54/137/137 15/141/138 56/140/139
f 15/141/138 12/142/140 56/140/139
f 54/137/137 53/138/141 15/141/138
f 15/141/138 53/138/141 16/144/142
f 53/138/141 55/139/143 16/144/142
f 16/144/142 55/139/143 11/143/144
f 55/139/143 56/140/139 11/143/144
f 12/142/140 11/143/144 56/140/139
s 33
f 56/145/145 55/146/146 49/148/147
f 49/148/147 55/146/146 50/147/148
s 34
f 50/149/149 55/150/150 51/152/151
f 51/152/151 55/150/150 53/151/152
s 35
f 56/153/153 49/154/154 54/156/155
f 54/156/155 49/154/154 17/157/156
f 17/157/156 49/154/154 18/160/157
f 49/154/154 52/155/158 18/160/157
f 18/160/157 52/155/158 21/159/159
f 52/155/158 54/156/155 21/159/159
f 21/159/159 54/156/155 22/158/160
f 54/156/155 17/157/156 22/158/160
s 36
f 57/161/161 58/162/162 60/164/163
f 60/164/163 58/162/162 9/165/164
f 9/165/164 58/162/162 10/168/165
f 58/162/162 59/163/166 10/168/165
f 10/168/165 59/163/166 13/167/167
f 59/163/166 60/164/163 13/167/167
f 13/167/167 60/164/163 14/166/168
f 60/164/163 9/165/164 14/166/168
s 37
f 60/169/169 59/170/170 62/172/171
f 62/172/171 59/170/170 61/171/172
s 38
f 62/173/173 61/174/174 64/176/175
f 64/176/175 61/174/174 63/175/176
s 39
f 64/177/177 63/178/178 57/180/179
f 57/180/179 63/178/178 58/179/180
s 40
f 58/181/181 63/182/182 59/184/183
f 59/184/183 63/182/182 61/183/184
s 41
f 64/185/185 57/186/186 62/188/187
f 62/188/187 57/186/186 2/191/188
f 2/191/188 57/186/186 3/190/189
f 57/186/186 60/187/190 3/190/189
f 3/190/189 60/187/190 6/189/191
f 60/187/190 62/188/187 6/189/191
f 6/189/191 62/188/187 7/192/192
f 62/188/187 2/191/188 7/192/192
s 42
f 65/193/193 66/194/194 67/195/195
f 67/195/195 66/194/194 68/196/196
s 43
f 69/197/197 70/198/198 71/199/199
f 71/199/199 70/198/198 72/200/200
s 44
f 73/201/201 74/202/202 77/203/203
f 77/203/203 75/204/204 78/205/205
f 79/206/206 77/203/203 80/207/207
f 77/203/203 78/205/205 81/208/208
f 73/201/201 77/203/203 76/209/209
f 74/202/202 75/204/204 77/203/203
f 77/203/203 81/208/208 80/207/207
f 76/209/209 77/203/203 79/206/206
s 46
f 82/210/210 83/211/211 84/212/212
f 84/212/212 83/211/211 85/213/213
s 47
f 86/214/214 87/215/215 88/216/216
f 88/216/216 87/215/215 89/217/217
